# xmcd
#
# Track frame offsets:
#	150
#	13155
#	31548
#	41449
#	52620
#	66360
#	78455
#	91291
#	101530
#	112088
#	127456
#	140535
#	156984
#	165860
#	177632
#	188444
#	203500
#	215228
#	227823
#	239949
#
# Disc length: 3388 seconds
# Revision: 0
# Processed by: cddbd v1.5.2PL0 Copyright (c) Steve Scherf et al.
# Submitted via: dBpowerAMP V12.0
#
DISCID=180d3a14
DTITLE=Ronny - CD1 - Das Beste - Das große Lebenswerk
DYEAR=2016
DGENRE=Volkstümlich
TTITLE0=Kein schöner Land in dieser Zeit
TTITLE1=Nimm uns mit Kapitän, auf die Reise
TTITLE2=Es waren zwei Königskinder
TTITLE3=Wenn alle Brünnlein fließen
TTITLE4=Du, Du liegst mir im Herzen
TTITLE5=Ännchen von Tharau
TTITLE6=Oh My Darling Caroline
TTITLE7=Muss wandern, muss wandern
TTITLE8=Kenn ein Land
TTITLE9=La Paloma
TTITLE10=Kleine Annabell
TTITLE11=Es war im Böhmerwald
TTITLE12=Zwischen Berg und tiefem, tiefem Tal
TTITLE13=Rosen so rot
TTITLE14=Weit von zu Haus (So wird es sein)
TTITLE15=Er war nur ein armer Zigeuner
TTITLE16=Jetzt kommen die lustigen Tage
TTITLE17=Oh Shenandoah
TTITLE18=Es ist nicht alles Gold was glänzt
TTITLE19=Nun ade, Du mein lieb' Heimatland
EXTD=
EXTT0=
EXTT1=
EXTT2=
EXTT3=
EXTT4=
EXTT5=
EXTT6=
EXTT7=
EXTT8=
EXTT9=
EXTT10=
EXTT11=
EXTT12=
EXTT13=
EXTT14=
EXTT15=
EXTT16=
EXTT17=
EXTT18=
EXTT19=
PLAYORDER=
